<?xml version="1.0" encoding="UTF-8"?><svg xmlns="http://www.w3.org/2000/svg" viewBox="0 0 240.32 47.58"><defs><style>.d{letter-spacing:-.07em;}.e{fill:#fff;}.f{letter-spacing:-.02em;}.g{letter-spacing:0em;}.h{font-family:GoodTimingRg-Bold, Good Timing;font-size:21px;}.i{letter-spacing:-.13em;}</style></defs><g id="a"/><g id="b"><g id="c"><text class="h" transform="translate(0 29.54)"><tspan x="0" y="0">CA</tspan><tspan class="f" x="34.02" y="0">P</tspan><tspan class="i" x="49.98" y="0">T</tspan><tspan x="61.85" y="0">AIN</tspan></text><text class="h" transform="translate(155.14 29.55)"><tspan class="g" x="0" y="0">C</tspan><tspan x="15.39" y="0">ON</tspan><tspan class="d" x="50.32" y="0">V</tspan><tspan x="67.35" y="0">O</tspan></text><g><path d="M111.09,15.01s18.26,11.49,16.19-10.4c0,0,2.92,16.38,19.16,7.98,0,0-8.08,15.18,9.42,16.71,0,0-11.38,3.29-10.6,14.24,0,0-15.7-9.06-20.84,4.04,0,0,.68-11.99-12.6-5.16,0,0,9.65-12.22-4.38-14.85,0,0,12.95-.84,3.66-12.57Z"/><g><path class="e" d="M107.3,10.76S125.56,22.25,123.49,.35c0,0,2.92,16.38,19.16,7.98,0,0-8.08,15.18,9.42,16.71,0,0-11.38,3.29-10.6,14.24,0,0-15.7-9.06-20.84,4.04,0,0,.68-11.99-12.6-5.16,0,0,9.65-12.22-4.38-14.85,0,0,12.95-.84,3.66-12.57Z"/><path d="M120.63,43.68s-.05,0-.08,0c-.17-.04-.29-.19-.28-.37,0-.03,.17-3.49-1.71-5.48-1.96-2.07-5.52-1.84-10.38,.66-.15,.08-.33,.04-.44-.09-.11-.13-.11-.31,0-.45,.04-.06,4.4-5.65,2.81-9.86-.83-2.22-3.18-3.7-6.98-4.42-.18-.03-.3-.19-.29-.37,.01-.18,.15-.32,.33-.33,.05,0,5.01-.36,6.35-3.37,.93-2.09-.06-4.99-2.94-8.62-.11-.14-.1-.33,.01-.46,.12-.13,.31-.16,.45-.06,.05,.03,4.76,2.96,8.99,2.96,1.95,0,3.49-.62,4.61-1.84,1.87-2.05,2.55-5.81,2.04-11.19-.02-.19,.12-.36,.31-.38,.19-.03,.36,.1,.4,.29,.02,.1,1.91,10.08,10.44,10.08,2.42,0,5.18-.79,8.21-2.36,.14-.07,.31-.04,.42,.07,.11,.11,.13,.28,.06,.42,0,.02-.88,1.66-1.41,3.88-.48,2.02-.78,4.93,.55,7.38,1.53,2.83,4.9,4.49,9.99,4.93,.17,.01,.31,.15,.32,.32,.02,.17-.09,.33-.25,.38-.03,0-2.83,.84-5.49,2.97-3.54,2.83-5.17,6.5-4.85,10.91,0,.13-.05,.26-.17,.33-.11,.07-.25,.07-.37,0-.05-.03-5.27-3.01-10.56-3.01-4.7,0-7.99,2.31-9.78,6.87-.05,.14-.19,.23-.33,.23Zm-5.67-7.97c1.71,0,3.09,.55,4.12,1.63,1.26,1.33,1.69,3.17,1.84,4.47,2-3.94,5.3-5.93,9.82-5.93s8.83,2.01,10.35,2.8c-.16-5.44,2.69-8.92,5.17-10.89,1.59-1.27,3.2-2.08,4.3-2.55-4.53-.65-7.58-2.38-9.08-5.14-2.16-3.99-.47-8.95,.42-10.99-2.77,1.32-5.33,1.98-7.62,1.98-6.09,0-9.01-4.7-10.28-7.86,.05,4.07-.75,7.03-2.39,8.83-1.25,1.37-2.98,2.07-5.13,2.07-3,0-6.13-1.34-7.91-2.25,2.27,3.25,2.96,5.94,2.04,8.01-.96,2.16-3.42,3.1-5.14,3.5,3.03,.87,4.96,2.36,5.74,4.45,.72,1.91,.44,4.35-.82,7.05-.44,.94-.92,1.76-1.31,2.37,2.25-1.03,4.22-1.54,5.87-1.54Z"/></g></g></g></g></svg>