<?xml version="1.0" encoding="UTF-8"?><svg xmlns="http://www.w3.org/2000/svg" viewBox="0 0 213.13 36.03"><defs><style>.d{fill:#fff;}.e{fill:#37c7ba;}</style></defs><g id="a"/><g id="b"><g id="c"><g><path class="d" d="M6.14,23.98c-3.55,0-6.14-2.88-6.14-6.68s2.59-6.41,6.14-6.41h6.84v1.21H6.14c-2.84,0-4.92,2.14-4.92,5.26s2.07,5.42,4.92,5.42h6.84v1.21H6.14Z"/><path class="d" d="M29.52,23.98l-2.21-3.73h-7.56l.59-1.04h6.34l-4.07-6.81-6.91,11.58h-1.39l7.74-12.87c.14-.25,.32-.4,.61-.4,.25,0,.43,.14,.59,.4l7.72,12.87h-1.46Z"/><path class="d" d="M35.69,20.13v-1.19h6.03c2.11,0,3.31-1.39,3.31-3.44s-1.21-3.4-3.31-3.4h-7.76v11.88h-1.22V10.89h8.98c2.84,0,4.5,1.78,4.5,4.57s-1.66,4.66-4.5,4.66h-6.03Z"/><path class="d" d="M52.74,23.98V12.1h-5.29v-1.21h11.79v1.21h-5.29v11.88h-1.21Z"/><path class="d" d="M73.05,23.98l-2.21-3.73h-7.56l.59-1.04h6.34l-4.07-6.81-6.91,11.58h-1.39l7.74-12.87c.14-.25,.32-.4,.61-.4,.25,0,.43,.14,.59,.4l7.72,12.87h-1.46Z"/><path class="d" d="M76.39,23.98V10.89h1.22v13.09h-1.22Z"/><path class="d" d="M81.47,12.64v11.34h-1.15V11.52c0-.49,.25-.79,.67-.79,.2,0,.4,.09,.59,.31l10.66,11.16V10.85h1.15v12.53c0,.49-.27,.76-.65,.76-.22,0-.45-.13-.63-.31l-10.64-11.2Z"/></g><g><path class="d" d="M140.36,23.98c-3.55,0-6.14-2.88-6.14-6.68s2.59-6.41,6.14-6.41h6.84v1.21h-6.84c-2.84,0-4.92,2.14-4.92,5.26s2.07,5.42,4.92,5.42h6.84v1.21h-6.84Z"/><path class="d" d="M155.17,23.98c-3.55,0-6.14-2.88-6.14-6.68s2.59-6.41,6.14-6.41h3.08c3.64,0,6.16,2.61,6.16,6.41s-2.57,6.68-6.16,6.68h-3.08Zm3.08-1.21c2.88,0,4.95-2.32,4.95-5.42s-2.03-5.26-4.95-5.26h-3.08c-2.84,0-4.92,2.14-4.92,5.26s2.07,5.42,4.92,5.42h3.08Z"/><path class="d" d="M167.75,12.64v11.34h-1.15V11.52c0-.49,.25-.79,.67-.79,.2,0,.4,.09,.59,.31l10.66,11.16V10.85h1.15v12.53c0,.49-.27,.76-.65,.76-.22,0-.45-.13-.63-.31l-10.64-11.2Z"/><path class="d" d="M181.38,10.89h1.48l6.9,11.61,6.9-11.61h1.4l-7.74,12.89c-.14,.22-.4,.38-.61,.38-.27,0-.49-.16-.61-.38l-7.71-12.89Z"/><path class="d" d="M203.9,23.98c-3.55,0-6.14-2.88-6.14-6.68s2.59-6.41,6.14-6.41h3.08c3.64,0,6.16,2.61,6.16,6.41s-2.57,6.68-6.16,6.68h-3.08Zm3.08-1.21c2.88,0,4.95-2.32,4.95-5.42s-2.03-5.26-4.95-5.26h-3.08c-2.84,0-4.92,2.14-4.92,5.26s2.07,5.42,4.92,5.42h3.08Z"/></g><g><path class="e" d="M101.38,11.37s13.83,8.7,12.26-7.88c0,0,2.21,12.41,14.51,6.04,0,0-6.12,11.49,7.13,12.65,0,0-8.62,2.49-8.03,10.79,0,0-11.89-6.86-15.78,3.06,0,0,.52-9.08-9.55-3.9,0,0,7.31-9.26-3.32-11.24,0,0,9.8-.64,2.77-9.52Z"/><g><path class="d" d="M98.51,8.15s13.83,8.7,12.26-7.88c0,0,2.21,12.41,14.51,6.04,0,0-6.12,11.49,7.13,12.65,0,0-8.62,2.49-8.03,10.79,0,0-11.89-6.86-15.78,3.06,0,0,.52-9.08-9.55-3.9,0,0,7.31-9.26-3.32-11.24,0,0,9.8-.64,2.77-9.52Z"/><path d="M108.61,33.08s-.04,0-.06,0c-.13-.03-.22-.15-.21-.28,0-.03,.13-2.64-1.3-4.15-1.48-1.57-4.18-1.39-7.86,.5-.11,.06-.25,.03-.33-.07-.08-.1-.08-.24,0-.34,.03-.04,3.33-4.28,2.13-7.47-.63-1.68-2.41-2.81-5.29-3.34-.13-.02-.23-.15-.22-.28,0-.14,.12-.24,.25-.25,.04,0,3.8-.28,4.81-2.55,.7-1.58-.05-3.78-2.23-6.53-.08-.1-.08-.25,.01-.35,.09-.1,.23-.12,.34-.05,.04,.02,3.6,2.24,6.81,2.24,1.47,0,2.65-.47,3.49-1.39,1.41-1.55,1.93-4.4,1.55-8.47-.01-.14,.09-.27,.23-.29,.14-.02,.28,.08,.3,.22,.01,.08,1.45,7.64,7.91,7.64,1.83,0,3.92-.6,6.22-1.79,.1-.05,.23-.03,.31,.05,.08,.08,.1,.21,.05,.32,0,.01-.66,1.26-1.07,2.94-.37,1.53-.59,3.73,.41,5.59,1.16,2.14,3.71,3.4,7.57,3.74,.13,.01,.23,.11,.24,.24,.01,.13-.07,.25-.19,.28-.02,0-2.14,.63-4.16,2.25-2.68,2.14-3.91,4.92-3.68,8.26,0,.1-.04,.19-.13,.25-.08,.05-.19,.05-.28,0-.04-.02-3.99-2.28-7.99-2.28-3.56,0-6.05,1.75-7.4,5.2-.04,.1-.14,.17-.25,.17Zm-4.29-6.04c1.29,0,2.34,.42,3.12,1.24,.95,1.01,1.28,2.4,1.39,3.38,1.52-2.98,4.01-4.49,7.43-4.49s6.69,1.52,7.84,2.12c-.12-4.12,2.04-6.75,3.91-8.25,1.2-.96,2.42-1.58,3.26-1.93-3.43-.49-5.74-1.8-6.87-3.89-1.64-3.02-.35-6.77,.32-8.32-2.1,1-4.04,1.5-5.77,1.5-4.61,0-6.82-3.56-7.78-5.95,.04,3.08-.57,5.32-1.81,6.69-.95,1.04-2.25,1.57-3.88,1.57-2.27,0-4.64-1.01-5.99-1.7,1.72,2.46,2.24,4.5,1.54,6.07-.73,1.63-2.59,2.35-3.89,2.65,2.3,.66,3.76,1.79,4.35,3.37,.54,1.45,.33,3.3-.62,5.34-.33,.71-.69,1.33-.99,1.79,1.7-.78,3.19-1.17,4.44-1.17Z"/></g></g></g></g></svg>